<svg width="160" height="158" viewBox="0 0 160 158" fill="none" xmlns="http://www.w3.org/2000/svg">
<path fill-rule="evenodd" clip-rule="evenodd" d="M2.31406 0H0.151194L0.338291 0.5H0L0.589362 1.17097L0.909195 2.02569L37.5476 99.9388L37.5497 99.9774L37.5577 99.9657L58.9092 157.026L59.2738 158H60.3141H99.3141H100.351L100.717 157.03L115.121 118.867L117.21 113.548L118.401 110.517L118.253 110.569L159.217 2.02966L159.983 0H157.814H108.314H107.277L106.911 0.970261L79.8265 72.7197L53.2205 0.978422L52.8576 0H51.8141H2.31406ZM43.1653 91.8303L77.7674 75.7952L69.5294 53.5819L43.1653 91.8303ZM68.2505 50.1336L51.3709 4.61892L37.7732 38.1599L68.23 50.1639L68.2505 50.1336ZM34.3438 39.599L6.16981 7.5241L37.018 89.9631L34.3438 39.599ZM122.549 90.6896L154.469 6.11477L125.669 39.9719L125.492 40.1797L122.549 90.6896ZM120.796 95.3336L119.715 93.9049L89.9101 54.5016L81.2716 77.3861L78.932 124.18L114.564 111.845L120.796 95.3336ZM91.5922 50.0455L109.072 3.74023L122.845 38.8211L91.5922 50.0455ZM40.2401 98.5741L61.3543 155H97.4029L75.6367 127.429L74.8691 126.457L40.2401 98.5741ZM113.186 115.497L112.321 117.789L98.873 152.021L79.2992 127.227L113.186 115.497ZM41.6353 95.8458L75.9629 123.486L78.1919 78.905L41.6353 95.8458ZM6.62812 3.5L35.3371 36.1841L48.5874 3.5H6.62812ZM37.4357 41.2514L66.4914 52.7032L40.0784 91.0226L37.4357 41.2514ZM152.755 3.5L125.007 36.1198L112.2 3.5H152.755ZM122.37 42.1791L92.473 52.9168L119.651 88.8471L122.37 42.1791Z" fill="#EAE8FF"/>
</svg>
