<svg width="375" height="82" viewBox="0 0 375 82" fill="none" xmlns="http://www.w3.org/2000/svg">
<path d="M31.3 65L43.4 25.2H61.6L41.8 81H20.7L0.9 25.2H19.2L31.3 65ZM77.3977 19.4C74.3977 19.4 71.931 18.5333 69.9977 16.8C68.131 15 67.1977 12.8 67.1977 10.2C67.1977 7.53333 68.131 5.33333 69.9977 3.6C71.931 1.79999 74.3977 0.899994 77.3977 0.899994C80.331 0.899994 82.731 1.79999 84.5977 3.6C86.531 5.33333 87.4977 7.53333 87.4977 10.2C87.4977 12.8 86.531 15 84.5977 16.8C82.731 18.5333 80.331 19.4 77.3977 19.4ZM85.8977 25.2V81H68.7977V25.2H85.8977ZM129.39 66.5V81H120.69C114.49 81 109.657 79.5 106.19 76.5C102.723 73.4333 100.99 68.4667 100.99 61.6V39.4H94.1898V25.2H100.99V11.6H118.09V25.2H129.29V39.4H118.09V61.8C118.09 63.4667 118.49 64.6667 119.29 65.4C120.09 66.1333 121.423 66.5 123.29 66.5H129.39ZM164.315 81.8C158.848 81.8 153.915 80.6333 149.515 78.3C145.182 75.9667 141.748 72.6333 139.215 68.3C136.748 63.9667 135.515 58.9 135.515 53.1C135.515 47.3667 136.782 42.3333 139.315 38C141.848 33.6 145.315 30.2333 149.715 27.9C154.115 25.5667 159.048 24.4 164.515 24.4C169.982 24.4 174.915 25.5667 179.315 27.9C183.715 30.2333 187.182 33.6 189.715 38C192.248 42.3333 193.515 47.3667 193.515 53.1C193.515 58.8333 192.215 63.9 189.615 68.3C187.082 72.6333 183.582 75.9667 179.115 78.3C174.715 80.6333 169.782 81.8 164.315 81.8ZM164.315 67C167.582 67 170.348 65.8 172.615 63.4C174.948 61 176.115 57.5667 176.115 53.1C176.115 48.6333 174.982 45.2 172.715 42.8C170.515 40.4 167.782 39.2 164.515 39.2C161.182 39.2 158.415 40.4 156.215 42.8C154.015 45.1333 152.915 48.5667 152.915 53.1C152.915 57.5667 153.982 61 156.115 63.4C158.315 65.8 161.048 67 164.315 67ZM219.687 34.5C221.687 31.4333 224.187 29.0333 227.187 27.3C230.187 25.5 233.52 24.6 237.187 24.6V42.7H232.487C228.22 42.7 225.02 43.6333 222.887 45.5C220.753 47.3 219.687 50.5 219.687 55.1V81H202.587V25.2H219.687V34.5ZM268.06 81.8C263.193 81.8 258.86 80.9667 255.06 79.3C251.26 77.6333 248.26 75.3667 246.06 72.5C243.86 69.5667 242.627 66.3 242.36 62.7H259.26C259.46 64.6333 260.36 66.2 261.96 67.4C263.56 68.6 265.527 69.2 267.86 69.2C269.993 69.2 271.627 68.8 272.76 68C273.96 67.1333 274.56 66.0333 274.56 64.7C274.56 63.1 273.727 61.9333 272.06 61.2C270.393 60.4 267.693 59.5333 263.96 58.6C259.96 57.6667 256.627 56.7 253.96 55.7C251.293 54.6333 248.993 53 247.06 50.8C245.127 48.5333 244.16 45.5 244.16 41.7C244.16 38.5 245.027 35.6 246.76 33C248.56 30.3333 251.16 28.2333 254.56 26.7C258.027 25.1667 262.127 24.4 266.86 24.4C273.86 24.4 279.36 26.1333 283.36 29.6C287.427 33.0667 289.76 37.6667 290.36 43.4H274.56C274.293 41.4667 273.427 39.9333 271.96 38.8C270.56 37.6667 268.693 37.1 266.36 37.1C264.36 37.1 262.827 37.5 261.76 38.3C260.693 39.0333 260.16 40.0667 260.16 41.4C260.16 43 260.993 44.2 262.66 45C264.393 45.8 267.06 46.6 270.66 47.4C274.793 48.4667 278.16 49.5333 280.76 50.6C283.36 51.6 285.627 53.2667 287.56 55.6C289.56 57.8667 290.593 60.9333 290.66 64.8C290.66 68.0667 289.727 71 287.86 73.6C286.06 76.1333 283.427 78.1333 279.96 79.6C276.56 81.0667 272.593 81.8 268.06 81.8ZM323.822 81.8C318.955 81.8 314.622 80.9667 310.822 79.3C307.022 77.6333 304.022 75.3667 301.822 72.5C299.622 69.5667 298.389 66.3 298.122 62.7H315.022C315.222 64.6333 316.122 66.2 317.722 67.4C319.322 68.6 321.289 69.2 323.622 69.2C325.755 69.2 327.389 68.8 328.522 68C329.722 67.1333 330.322 66.0333 330.322 64.7C330.322 63.1 329.489 61.9333 327.822 61.2C326.155 60.4 323.455 59.5333 319.722 58.6C315.722 57.6667 312.389 56.7 309.722 55.7C307.055 54.6333 304.755 53 302.822 50.8C300.889 48.5333 299.922 45.5 299.922 41.7C299.922 38.5 300.789 35.6 302.522 33C304.322 30.3333 306.922 28.2333 310.322 26.7C313.789 25.1667 317.889 24.4 322.622 24.4C329.622 24.4 335.122 26.1333 339.122 29.6C343.189 33.0667 345.522 37.6667 346.122 43.4H330.322C330.055 41.4667 329.189 39.9333 327.722 38.8C326.322 37.6667 324.455 37.1 322.122 37.1C320.122 37.1 318.589 37.5 317.522 38.3C316.455 39.0333 315.922 40.0667 315.922 41.4C315.922 43 316.755 44.2 318.422 45C320.155 45.8 322.822 46.6 326.422 47.4C330.555 48.4667 333.922 49.5333 336.522 50.6C339.122 51.6 341.389 53.2667 343.322 55.6C345.322 57.8667 346.355 60.9333 346.422 64.8C346.422 68.0667 345.489 71 343.622 73.6C341.822 76.1333 339.189 78.1333 335.722 79.6C332.322 81.0667 328.355 81.8 323.822 81.8ZM364.884 81.8C361.884 81.8 359.417 80.9333 357.484 79.2C355.617 77.4 354.684 75.2 354.684 72.6C354.684 69.9333 355.617 67.7 357.484 65.9C359.417 64.1 361.884 63.2 364.884 63.2C367.817 63.2 370.217 64.1 372.084 65.9C374.017 67.7 374.984 69.9333 374.984 72.6C374.984 75.2 374.017 77.4 372.084 79.2C370.217 80.9333 367.817 81.8 364.884 81.8Z" fill="#EEF1F1"/>
</svg>
