<svg width="213" height="87" viewBox="0 0 213 87" fill="none" xmlns="http://www.w3.org/2000/svg">
<path d="M45.95 61L64.1 1.3H91.4L61.7 85H30.05L0.35 1.3H27.8L45.95 61ZM136.246 86.2C128.946 86.2 122.446 84.95 116.746 82.45C111.046 79.95 106.546 76.55 103.246 72.25C99.9465 67.85 98.0965 62.95 97.6965 57.55H123.046C123.346 60.45 124.696 62.8 127.096 64.6C129.496 66.4 132.446 67.3 135.946 67.3C139.146 67.3 141.596 66.7 143.296 65.5C145.096 64.2 145.996 62.55 145.996 60.55C145.996 58.15 144.746 56.4 142.246 55.3C139.746 54.1 135.696 52.8 130.096 51.4C124.096 50 119.096 48.55 115.096 47.05C111.096 45.45 107.646 43 104.746 39.7C101.846 36.3 100.396 31.75 100.396 26.05C100.396 21.25 101.696 16.9 104.296 13C106.996 8.99999 110.896 5.84999 115.996 3.54999C121.196 1.24999 127.346 0.0999933 134.446 0.0999933C144.946 0.0999933 153.196 2.7 159.196 7.9C165.296 13.1 168.796 20 169.696 28.6H145.996C145.596 25.7 144.296 23.4 142.096 21.7C139.996 20 137.196 19.15 133.696 19.15C130.696 19.15 128.396 19.75 126.796 20.95C125.196 22.05 124.396 23.6 124.396 25.6C124.396 28 125.646 29.8 128.146 31C130.746 32.2 134.746 33.4 140.146 34.6C146.346 36.2 151.396 37.8 155.296 39.4C159.196 40.9 162.596 43.4 165.496 46.9C168.496 50.3 170.046 54.9 170.146 60.7C170.146 65.6 168.746 70 165.946 73.9C163.246 77.7 159.296 80.7 154.096 82.9C148.996 85.1 143.046 86.2 136.246 86.2ZM197.839 86.2C193.339 86.2 189.639 84.9 186.739 82.3C183.939 79.6 182.539 76.3 182.539 72.4C182.539 68.4 183.939 65.05 186.739 62.35C189.639 59.65 193.339 58.3 197.839 58.3C202.239 58.3 205.839 59.65 208.639 62.35C211.539 65.05 212.989 68.4 212.989 72.4C212.989 76.3 211.539 79.6 208.639 82.3C205.839 84.9 202.239 86.2 197.839 86.2Z" fill="#EEF1F1"/>
</svg>
